<svg xmlns="http://www.w3.org/2000/svg" width="572" height="140" viewBox="0 0 572 140" role="img" aria-label="cones: A terminal workspace for coding agents.">
  <!-- generated by assets/cones.py -->
  <style>
    @media (prefers-color-scheme: dark) { .tagline { fill: #9ca3af; } }
  </style>
  <defs>
    <clipPath id="scene-bounds"><rect width="240" height="140"/></clipPath>
    <linearGradient id="ink" gradientUnits="userSpaceOnUse" x1="0" y1="40" x2="0" y2="90.4">
      <stop offset="0" stop-color="#fdba74"/>
      <stop offset=".45" stop-color="#f97316"/>
      <stop offset="1" stop-color="#c2410c"/>
    </linearGradient>
  </defs>
  <g clip-path="url(#scene-bounds)">
    <line x1="0" y1="112" x2="240" y2="112" stroke="#9ca3af" stroke-width="2" opacity=".6"/>
    <line x1="0" y1="124" x2="240" y2="124" stroke="#9ca3af" stroke-width="3" stroke-dasharray="14 10" opacity=".7">
      <animate attributeName="stroke-dashoffset" values="0;-96" dur="1.4s" calcMode="spline" keySplines=".2 .8 .2 1" fill="freeze"/>
    </line>
    <g transform="translate(-3 25.76) scale(.77)">
      <g>
        <animateTransform attributeName="transform" type="translate" values="-90 0;0 0" dur="1.8s" calcMode="spline" keySplines=".2 .8 .2 1" fill="freeze"/>
        <g transform="translate(10 82) scale(3)"><rect x="2" y="0" width="1" height="1" fill="#3b82f6"/><rect x="3" y="0" width="1" height="1" fill="#3b82f6"/><rect x="4" y="0" width="1" height="1" fill="#3b82f6"/><rect x="5" y="0" width="1" height="1" fill="#3b82f6"/><rect x="6" y="0" width="1" height="1" fill="#3b82f6"/><rect x="7" y="0" width="1" height="1" fill="#3b82f6"/><rect x="8" y="0" width="1" height="1" fill="#3b82f6"/><rect x="9" y="0" width="1" height="1" fill="#3b82f6"/><rect x="10" y="0" width="1" height="1" fill="#3b82f6"/><rect x="11" y="0" width="1" height="1" fill="#3b82f6"/><rect x="12" y="0" width="1" height="1" fill="#3b82f6"/><rect x="13" y="0" width="1" height="1" fill="#3b82f6"/><rect x="1" y="1" width="1" height="1" fill="#3b82f6"/><rect x="2" y="1" width="1" height="1" fill="#3b82f6"/><rect x="3" y="1" width="1" height="1" fill="#3b82f6"/><rect x="4" y="1" width="1" height="1" fill="#3b82f6"/><rect x="5" y="1" width="1" height="1" fill="#3b82f6"/><rect x="6" y="1" width="1" height="1" fill="#3b82f6"/><rect x="7" y="1" width="1" height="1" fill="#3b82f6"/><rect x="8" y="1" width="1" height="1" fill="#3b82f6"/><rect x="9" y="1" width="1" height="1" fill="#3b82f6"/><rect x="10" y="1" width="1" height="1" fill="#3b82f6"/><rect x="11" y="1" width="1" height="1" fill="#3b82f6"/><rect x="12" y="1" width="1" height="1" fill="#3b82f6"/><rect x="13" y="1" width="1" height="1" fill="#3b82f6"/><rect x="14" y="1" width="1" height="1" fill="#3b82f6"/><rect x="0" y="2" width="1" height="1" fill="#3b82f6"/><rect x="1" y="2" width="1" height="1" fill="#3b82f6"/><rect x="2" y="2" width="1" height="1" fill="#3b82f6"/><rect x="3" y="2" width="1" height="1" fill="#0f172a"/><rect x="4" y="2" width="1" height="1" fill="#0f172a"/><rect x="5" y="2" width="1" height="1" fill="#0f172a"/><rect x="6" y="2" width="1" height="1" fill="#0f172a"/><rect x="7" y="2" width="1" height="1" fill="#0f172a"/><rect x="8" y="2" width="1" height="1" fill="#0f172a"/><rect x="9" y="2" width="1" height="1" fill="#0f172a"/><rect x="10" y="2" width="1" height="1" fill="#0f172a"/><rect x="11" y="2" width="1" height="1" fill="#0f172a"/><rect x="12" y="2" width="1" height="1" fill="#0f172a"/><rect x="13" y="2" width="1" height="1" fill="#3b82f6"/><rect x="14" y="2" width="1" height="1" fill="#3b82f6"/><rect x="15" y="2" width="1" height="1" fill="#3b82f6"/><rect x="0" y="3" width="1" height="1" fill="#3b82f6"/><rect x="1" y="3" width="1" height="1" fill="#3b82f6"/><rect x="2" y="3" width="1" height="1" fill="#3b82f6"/><rect x="3" y="3" width="1" height="1" fill="#0f172a"/><rect x="4" y="3" width="1" height="1" fill="#0f172a"/><rect x="5" y="3" width="1" height="1" fill="#0f172a"/><rect x="6" y="3" width="1" height="1" fill="#0f172a"/><rect x="7" y="3" width="1" height="1" fill="#0f172a"/><rect x="8" y="3" width="1" height="1" fill="#0f172a"/><rect x="9" y="3" width="1" height="1" fill="#0f172a"/><rect x="10" y="3" width="1" height="1" fill="#0f172a"/><rect x="11" y="3" width="1" height="1" fill="#0f172a"/><rect x="12" y="3" width="1" height="1" fill="#0f172a"/><rect x="13" y="3" width="1" height="1" fill="#3b82f6"/><rect x="14" y="3" width="1" height="1" fill="#3b82f6"/><rect x="15" y="3" width="1" height="1" fill="#3b82f6"/><rect x="0" y="4" width="1" height="1" fill="#3b82f6"/><rect x="1" y="4" width="1" height="1" fill="#3b82f6"/><rect x="2" y="4" width="1" height="1" fill="#3b82f6"/><rect x="3" y="4" width="1" height="1" fill="#0f172a"/><rect x="4" y="4" width="1" height="1" fill="#0f172a"/><rect x="5" y="4" width="1" height="1" fill="#0f172a"/><rect x="6" y="4" width="1" height="1" fill="#0f172a"/><rect x="7" y="4" width="1" height="1" fill="#0f172a"/><rect x="8" y="4" width="1" height="1" fill="#0f172a"/><rect x="9" y="4" width="1" height="1" fill="#0f172a"/><rect x="10" y="4" width="1" height="1" fill="#0f172a"/><rect x="11" y="4" width="1" height="1" fill="#0f172a"/><rect x="12" y="4" width="1" height="1" fill="#0f172a"/><rect x="13" y="4" width="1" height="1" fill="#3b82f6"/><rect x="14" y="4" width="1" height="1" fill="#3b82f6"/><rect x="15" y="4" width="1" height="1" fill="#3b82f6"/><rect x="0" y="5" width="1" height="1" fill="#3b82f6"/><rect x="1" y="5" width="1" height="1" fill="#3b82f6"/><rect x="2" y="5" width="1" height="1" fill="#3b82f6"/><rect x="3" y="5" width="1" height="1" fill="#0f172a"/><rect x="4" y="5" width="1" height="1" fill="#0f172a"/><rect x="5" y="5" width="1" height="1" fill="#0f172a"/><rect x="6" y="5" width="1" height="1" fill="#0f172a"/><rect x="7" y="5" width="1" height="1" fill="#0f172a"/><rect x="8" y="5" width="1" height="1" fill="#0f172a"/><rect x="9" y="5" width="1" height="1" fill="#0f172a"/><rect x="10" y="5" width="1" height="1" fill="#0f172a"/><rect x="11" y="5" width="1" height="1" fill="#0f172a"/><rect x="12" y="5" width="1" height="1" fill="#0f172a"/><rect x="13" y="5" width="1" height="1" fill="#3b82f6"/><rect x="14" y="5" width="1" height="1" fill="#3b82f6"/><rect x="15" y="5" width="1" height="1" fill="#3b82f6"/><rect x="1" y="6" width="1" height="1" fill="#3b82f6"/><rect x="2" y="6" width="1" height="1" fill="#3b82f6"/><rect x="3" y="6" width="1" height="1" fill="#3b82f6"/><rect x="4" y="6" width="1" height="1" fill="#3b82f6"/><rect x="5" y="6" width="1" height="1" fill="#3b82f6"/><rect x="6" y="6" width="1" height="1" fill="#3b82f6"/><rect x="7" y="6" width="1" height="1" fill="#3b82f6"/><rect x="8" y="6" width="1" height="1" fill="#3b82f6"/><rect x="9" y="6" width="1" height="1" fill="#3b82f6"/><rect x="10" y="6" width="1" height="1" fill="#3b82f6"/><rect x="11" y="6" width="1" height="1" fill="#3b82f6"/><rect x="12" y="6" width="1" height="1" fill="#3b82f6"/><rect x="13" y="6" width="1" height="1" fill="#3b82f6"/><rect x="14" y="6" width="1" height="1" fill="#3b82f6"/><rect x="2" y="7" width="1" height="1" fill="#3b82f6"/><rect x="3" y="7" width="1" height="1" fill="#3b82f6"/><rect x="4" y="7" width="1" height="1" fill="#3b82f6"/><rect x="5" y="7" width="1" height="1" fill="#3b82f6"/><rect x="6" y="7" width="1" height="1" fill="#3b82f6"/><rect x="7" y="7" width="1" height="1" fill="#3b82f6"/><rect x="8" y="7" width="1" height="1" fill="#3b82f6"/><rect x="9" y="7" width="1" height="1" fill="#3b82f6"/><rect x="10" y="7" width="1" height="1" fill="#3b82f6"/><rect x="11" y="7" width="1" height="1" fill="#3b82f6"/><rect x="12" y="7" width="1" height="1" fill="#3b82f6"/><rect x="13" y="7" width="1" height="1" fill="#3b82f6"/><rect x="3" y="8" width="1" height="1" fill="#64748b"/><rect x="4" y="8" width="1" height="1" fill="#64748b"/><rect x="5" y="8" width="1" height="1" fill="#64748b"/><rect x="10" y="8" width="1" height="1" fill="#64748b"/><rect x="11" y="8" width="1" height="1" fill="#64748b"/><rect x="12" y="8" width="1" height="1" fill="#64748b"/><rect x="3" y="9" width="1" height="1" fill="#64748b"/><rect x="4" y="9" width="1" height="1" fill="#64748b"/><rect x="5" y="9" width="1" height="1" fill="#64748b"/><rect x="10" y="9" width="1" height="1" fill="#64748b"/><rect x="11" y="9" width="1" height="1" fill="#64748b"/><rect x="12" y="9" width="1" height="1" fill="#64748b"/></g>
        <text x="21" y="98" font-family="ui-monospace, SFMono-Regular, Menlo, Consolas, monospace" font-size="11" font-weight="700" fill="#e2e8f0">&gt;<tspan><animate attributeName="opacity" values="1;1;0;0" dur="1s" repeatCount="indefinite"/>_</tspan></text></g></g>
    <g transform="translate(42 25.76) scale(.77)">
      <g>
        <animateTransform attributeName="transform" type="translate" values="-90 0;0 0" dur="1.4s" calcMode="spline" keySplines=".2 .8 .2 1" fill="freeze"/>
        <g transform="translate(10 82) scale(3)"><rect x="2" y="0" width="1" height="1" fill="#3b82f6"/><rect x="3" y="0" width="1" height="1" fill="#3b82f6"/><rect x="4" y="0" width="1" height="1" fill="#3b82f6"/><rect x="5" y="0" width="1" height="1" fill="#3b82f6"/><rect x="6" y="0" width="1" height="1" fill="#3b82f6"/><rect x="7" y="0" width="1" height="1" fill="#3b82f6"/><rect x="8" y="0" width="1" height="1" fill="#3b82f6"/><rect x="9" y="0" width="1" height="1" fill="#3b82f6"/><rect x="10" y="0" width="1" height="1" fill="#3b82f6"/><rect x="11" y="0" width="1" height="1" fill="#3b82f6"/><rect x="12" y="0" width="1" height="1" fill="#3b82f6"/><rect x="13" y="0" width="1" height="1" fill="#3b82f6"/><rect x="1" y="1" width="1" height="1" fill="#3b82f6"/><rect x="2" y="1" width="1" height="1" fill="#3b82f6"/><rect x="3" y="1" width="1" height="1" fill="#3b82f6"/><rect x="4" y="1" width="1" height="1" fill="#3b82f6"/><rect x="5" y="1" width="1" height="1" fill="#3b82f6"/><rect x="6" y="1" width="1" height="1" fill="#3b82f6"/><rect x="7" y="1" width="1" height="1" fill="#3b82f6"/><rect x="8" y="1" width="1" height="1" fill="#3b82f6"/><rect x="9" y="1" width="1" height="1" fill="#3b82f6"/><rect x="10" y="1" width="1" height="1" fill="#3b82f6"/><rect x="11" y="1" width="1" height="1" fill="#3b82f6"/><rect x="12" y="1" width="1" height="1" fill="#3b82f6"/><rect x="13" y="1" width="1" height="1" fill="#3b82f6"/><rect x="14" y="1" width="1" height="1" fill="#3b82f6"/><rect x="0" y="2" width="1" height="1" fill="#3b82f6"/><rect x="1" y="2" width="1" height="1" fill="#3b82f6"/><rect x="2" y="2" width="1" height="1" fill="#3b82f6"/><rect x="3" y="2" width="1" height="1" fill="#0f172a"/><rect x="4" y="2" width="1" height="1" fill="#0f172a"/><rect x="5" y="2" width="1" height="1" fill="#0f172a"/><rect x="6" y="2" width="1" height="1" fill="#0f172a"/><rect x="7" y="2" width="1" height="1" fill="#0f172a"/><rect x="8" y="2" width="1" height="1" fill="#0f172a"/><rect x="9" y="2" width="1" height="1" fill="#0f172a"/><rect x="10" y="2" width="1" height="1" fill="#0f172a"/><rect x="11" y="2" width="1" height="1" fill="#0f172a"/><rect x="12" y="2" width="1" height="1" fill="#0f172a"/><rect x="13" y="2" width="1" height="1" fill="#3b82f6"/><rect x="14" y="2" width="1" height="1" fill="#3b82f6"/><rect x="15" y="2" width="1" height="1" fill="#3b82f6"/><rect x="0" y="3" width="1" height="1" fill="#3b82f6"/><rect x="1" y="3" width="1" height="1" fill="#3b82f6"/><rect x="2" y="3" width="1" height="1" fill="#3b82f6"/><rect x="3" y="3" width="1" height="1" fill="#0f172a"/><rect x="4" y="3" width="1" height="1" fill="#0f172a"/><rect x="5" y="3" width="1" height="1" fill="#0f172a"/><rect x="6" y="3" width="1" height="1" fill="#0f172a"/><rect x="7" y="3" width="1" height="1" fill="#0f172a"/><rect x="8" y="3" width="1" height="1" fill="#0f172a"/><rect x="9" y="3" width="1" height="1" fill="#0f172a"/><rect x="10" y="3" width="1" height="1" fill="#0f172a"/><rect x="11" y="3" width="1" height="1" fill="#0f172a"/><rect x="12" y="3" width="1" height="1" fill="#0f172a"/><rect x="13" y="3" width="1" height="1" fill="#3b82f6"/><rect x="14" y="3" width="1" height="1" fill="#3b82f6"/><rect x="15" y="3" width="1" height="1" fill="#3b82f6"/><rect x="0" y="4" width="1" height="1" fill="#3b82f6"/><rect x="1" y="4" width="1" height="1" fill="#3b82f6"/><rect x="2" y="4" width="1" height="1" fill="#3b82f6"/><rect x="3" y="4" width="1" height="1" fill="#0f172a"/><rect x="4" y="4" width="1" height="1" fill="#0f172a"/><rect x="5" y="4" width="1" height="1" fill="#0f172a"/><rect x="6" y="4" width="1" height="1" fill="#0f172a"/><rect x="7" y="4" width="1" height="1" fill="#0f172a"/><rect x="8" y="4" width="1" height="1" fill="#0f172a"/><rect x="9" y="4" width="1" height="1" fill="#0f172a"/><rect x="10" y="4" width="1" height="1" fill="#0f172a"/><rect x="11" y="4" width="1" height="1" fill="#0f172a"/><rect x="12" y="4" width="1" height="1" fill="#0f172a"/><rect x="13" y="4" width="1" height="1" fill="#3b82f6"/><rect x="14" y="4" width="1" height="1" fill="#3b82f6"/><rect x="15" y="4" width="1" height="1" fill="#3b82f6"/><rect x="0" y="5" width="1" height="1" fill="#3b82f6"/><rect x="1" y="5" width="1" height="1" fill="#3b82f6"/><rect x="2" y="5" width="1" height="1" fill="#3b82f6"/><rect x="3" y="5" width="1" height="1" fill="#0f172a"/><rect x="4" y="5" width="1" height="1" fill="#0f172a"/><rect x="5" y="5" width="1" height="1" fill="#0f172a"/><rect x="6" y="5" width="1" height="1" fill="#0f172a"/><rect x="7" y="5" width="1" height="1" fill="#0f172a"/><rect x="8" y="5" width="1" height="1" fill="#0f172a"/><rect x="9" y="5" width="1" height="1" fill="#0f172a"/><rect x="10" y="5" width="1" height="1" fill="#0f172a"/><rect x="11" y="5" width="1" height="1" fill="#0f172a"/><rect x="12" y="5" width="1" height="1" fill="#0f172a"/><rect x="13" y="5" width="1" height="1" fill="#3b82f6"/><rect x="14" y="5" width="1" height="1" fill="#3b82f6"/><rect x="15" y="5" width="1" height="1" fill="#3b82f6"/><rect x="1" y="6" width="1" height="1" fill="#3b82f6"/><rect x="2" y="6" width="1" height="1" fill="#3b82f6"/><rect x="3" y="6" width="1" height="1" fill="#3b82f6"/><rect x="4" y="6" width="1" height="1" fill="#3b82f6"/><rect x="5" y="6" width="1" height="1" fill="#3b82f6"/><rect x="6" y="6" width="1" height="1" fill="#3b82f6"/><rect x="7" y="6" width="1" height="1" fill="#3b82f6"/><rect x="8" y="6" width="1" height="1" fill="#3b82f6"/><rect x="9" y="6" width="1" height="1" fill="#3b82f6"/><rect x="10" y="6" width="1" height="1" fill="#3b82f6"/><rect x="11" y="6" width="1" height="1" fill="#3b82f6"/><rect x="12" y="6" width="1" height="1" fill="#3b82f6"/><rect x="13" y="6" width="1" height="1" fill="#3b82f6"/><rect x="14" y="6" width="1" height="1" fill="#3b82f6"/><rect x="2" y="7" width="1" height="1" fill="#3b82f6"/><rect x="3" y="7" width="1" height="1" fill="#3b82f6"/><rect x="4" y="7" width="1" height="1" fill="#3b82f6"/><rect x="5" y="7" width="1" height="1" fill="#3b82f6"/><rect x="6" y="7" width="1" height="1" fill="#3b82f6"/><rect x="7" y="7" width="1" height="1" fill="#3b82f6"/><rect x="8" y="7" width="1" height="1" fill="#3b82f6"/><rect x="9" y="7" width="1" height="1" fill="#3b82f6"/><rect x="10" y="7" width="1" height="1" fill="#3b82f6"/><rect x="11" y="7" width="1" height="1" fill="#3b82f6"/><rect x="12" y="7" width="1" height="1" fill="#3b82f6"/><rect x="13" y="7" width="1" height="1" fill="#3b82f6"/><rect x="3" y="8" width="1" height="1" fill="#64748b"/><rect x="4" y="8" width="1" height="1" fill="#64748b"/><rect x="5" y="8" width="1" height="1" fill="#64748b"/><rect x="10" y="8" width="1" height="1" fill="#64748b"/><rect x="11" y="8" width="1" height="1" fill="#64748b"/><rect x="12" y="8" width="1" height="1" fill="#64748b"/><rect x="3" y="9" width="1" height="1" fill="#64748b"/><rect x="4" y="9" width="1" height="1" fill="#64748b"/><rect x="5" y="9" width="1" height="1" fill="#64748b"/><rect x="10" y="9" width="1" height="1" fill="#64748b"/><rect x="11" y="9" width="1" height="1" fill="#64748b"/><rect x="12" y="9" width="1" height="1" fill="#64748b"/></g>
        <text x="21" y="98" font-family="ui-monospace, SFMono-Regular, Menlo, Consolas, monospace" font-size="11" font-weight="700" fill="#e2e8f0">&gt;<tspan><animate attributeName="opacity" values="1;1;0;0" dur="1s" repeatCount="indefinite"/>_</tspan></text><g opacity="0" transform="translate(40 60)">
          <animate attributeName="opacity" values="0;1" begin="1.4s" dur=".3s" fill="freeze"/>
          <path d="M6 16 L12 22 L16 16 Z" fill="#e5e7eb"/>
          <rect width="38" height="18" rx="9" fill="#e5e7eb"/>
          <circle cx="11" cy="9" r="2.4" fill="#6b7280"><animate attributeName="opacity" values="1;.2;1" dur="1.2s" repeatCount="indefinite"/></circle>
          <circle cx="19" cy="9" r="2.4" fill="#6b7280"><animate attributeName="opacity" values="1;.2;1" dur="1.2s" begin=".2s" repeatCount="indefinite"/></circle>
          <circle cx="27" cy="9" r="2.4" fill="#6b7280"><animate attributeName="opacity" values="1;.2;1" dur="1.2s" begin=".4s" repeatCount="indefinite"/></circle>
        </g></g></g>
    <g transform="translate(208.6 85.6) scale(4.4)">
      <ellipse cx="3.5" cy="6.04" rx="3.5" ry=".2" fill="#ff8700" opacity=".17"/>
      <rect x="3" y="0" width="1" height="1" fill="#ff8700"/><rect x="2" y="1" width="1" height="1" fill="#ff8700"/><rect x="3" y="1" width="1" height="1" fill="#ff8700"/><rect x="4" y="1" width="1" height="1" fill="#ff8700"/><rect x="1" y="2" width="1" height="1" fill="#f1eadf"/><rect x="2" y="2" width="1" height="1" fill="#f1eadf"/><rect x="3" y="2" width="1" height="1" fill="#f1eadf"/><rect x="4" y="2" width="1" height="1" fill="#f1eadf"/><rect x="5" y="2" width="1" height="1" fill="#f1eadf"/><rect x="0" y="3" width="1" height="1" fill="#ff8700"/><rect x="1" y="3" width="1" height="1" fill="#ff8700"/><rect x="3" y="3" width="1" height="1" fill="#ff8700"/><rect x="5" y="3" width="1" height="1" fill="#ff8700"/><rect x="6" y="3" width="1" height="1" fill="#ff8700"/><rect x="0" y="4" width="1" height="1" fill="#ff8700"/><rect x="1" y="4" width="1" height="1" fill="#ff8700"/><rect x="2" y="4" width="1" height="1" fill="#ff8700"/><rect x="3" y="4" width="1" height="1" fill="#ff8700"/><rect x="4" y="4" width="1" height="1" fill="#ff8700"/><rect x="5" y="4" width="1" height="1" fill="#ff8700"/><rect x="6" y="4" width="1" height="1" fill="#ff8700"/><rect x="1" y="5" width="1" height="1" fill="#ff8700"/><rect x="2" y="5" width="1" height="1" fill="#ff8700"/><rect x="4" y="5" width="1" height="1" fill="#ff8700"/><rect x="5" y="5" width="1" height="1" fill="#ff8700"/>
      <path d="M2 3h1v1H2z M4 3h1v1H4z" fill="#0d1117"/></g>
    <g transform="translate(169.55 71.8) scale(6.7)">
      <ellipse cx="3.5" cy="6.04" rx="3.5" ry=".2" fill="#ff8700" opacity=".17"/>
      <rect x="3" y="0" width="1" height="1" fill="#ff8700"/><rect x="2" y="1" width="1" height="1" fill="#ff8700"/><rect x="3" y="1" width="1" height="1" fill="#ff8700"/><rect x="4" y="1" width="1" height="1" fill="#ff8700"/><rect x="1" y="2" width="1" height="1" fill="#f1eadf"/><rect x="2" y="2" width="1" height="1" fill="#f1eadf"/><rect x="3" y="2" width="1" height="1" fill="#f1eadf"/><rect x="4" y="2" width="1" height="1" fill="#f1eadf"/><rect x="5" y="2" width="1" height="1" fill="#f1eadf"/><rect x="0" y="3" width="1" height="1" fill="#ff8700"/><rect x="1" y="3" width="1" height="1" fill="#ff8700"/><rect x="3" y="3" width="1" height="1" fill="#ff8700"/><rect x="5" y="3" width="1" height="1" fill="#ff8700"/><rect x="6" y="3" width="1" height="1" fill="#ff8700"/><rect x="0" y="4" width="1" height="1" fill="#ff8700"/><rect x="1" y="4" width="1" height="1" fill="#ff8700"/><rect x="2" y="4" width="1" height="1" fill="#ff8700"/><rect x="3" y="4" width="1" height="1" fill="#ff8700"/><rect x="4" y="4" width="1" height="1" fill="#ff8700"/><rect x="5" y="4" width="1" height="1" fill="#ff8700"/><rect x="6" y="4" width="1" height="1" fill="#ff8700"/><rect x="1" y="5" width="1" height="1" fill="#ff8700"/><rect x="2" y="5" width="1" height="1" fill="#ff8700"/><rect x="4" y="5" width="1" height="1" fill="#ff8700"/><rect x="5" y="5" width="1" height="1" fill="#ff8700"/>
      <path d="M2 3h1v1H2z M4 3h1v1H4z" fill="#0d1117"/></g>
    <g transform="translate(108.0 52) scale(10)">
      <ellipse cx="3.5" cy="6.04" rx="3.5" ry=".2" fill="#ff8700" opacity=".17"/>
      <rect x="3" y="0" width="1" height="1" fill="#ff8700"/><rect x="2" y="1" width="1" height="1" fill="#ff8700"/><rect x="3" y="1" width="1" height="1" fill="#ff8700"/><rect x="4" y="1" width="1" height="1" fill="#ff8700"/><rect x="1" y="2" width="1" height="1" fill="#f1eadf"/><rect x="2" y="2" width="1" height="1" fill="#f1eadf"/><rect x="3" y="2" width="1" height="1" fill="#f1eadf"/><rect x="4" y="2" width="1" height="1" fill="#f1eadf"/><rect x="5" y="2" width="1" height="1" fill="#f1eadf"/><rect x="0" y="3" width="1" height="1" fill="#ff8700"/><rect x="1" y="3" width="1" height="1" fill="#ff8700"/><rect x="3" y="3" width="1" height="1" fill="#ff8700"/><rect x="5" y="3" width="1" height="1" fill="#ff8700"/><rect x="6" y="3" width="1" height="1" fill="#ff8700"/><rect x="0" y="4" width="1" height="1" fill="#ff8700"/><rect x="1" y="4" width="1" height="1" fill="#ff8700"/><rect x="2" y="4" width="1" height="1" fill="#ff8700"/><rect x="3" y="4" width="1" height="1" fill="#ff8700"/><rect x="4" y="4" width="1" height="1" fill="#ff8700"/><rect x="5" y="4" width="1" height="1" fill="#ff8700"/><rect x="6" y="4" width="1" height="1" fill="#ff8700"/><rect x="1" y="5" width="1" height="1" fill="#ff8700"/><rect x="2" y="5" width="1" height="1" fill="#ff8700"/><rect x="4" y="5" width="1" height="1" fill="#ff8700"/><rect x="5" y="5" width="1" height="1" fill="#ff8700"/>
      <path d="M2 3h1v1H2z M4 3h1v1H4z" fill="#0d1117"/><path d="M2 3h1v1H2z M4 3h1v1H4z" fill="#ff8700" opacity="0">
          <animate attributeName="opacity" values="0;0;1;0;0" keyTimes="0;.70;.715;.75;1" dur="5s" repeatCount="indefinite"/>
        </path></g>
  </g>
  <g opacity=".35"><rect x="257.8" y="42.4" width="5.1" height="5.1" rx=".7" fill="#7c2d12"/>
<rect x="263.4" y="42.4" width="5.1" height="5.1" rx=".7" fill="#7c2d12"/>
<rect x="269.0" y="42.4" width="5.1" height="5.1" rx=".7" fill="#7c2d12"/>
<rect x="274.6" y="42.4" width="5.1" height="5.1" rx=".7" fill="#7c2d12"/>
<rect x="280.2" y="42.4" width="5.1" height="5.1" rx=".7" fill="#7c2d12"/>
<rect x="252.2" y="48.0" width="5.1" height="5.1" rx=".7" fill="#7c2d12"/>
<rect x="257.8" y="48.0" width="5.1" height="5.1" rx=".7" fill="#7c2d12"/>
<rect x="280.2" y="48.0" width="5.1" height="5.1" rx=".7" fill="#7c2d12"/>
<rect x="285.8" y="48.0" width="5.1" height="5.1" rx=".7" fill="#7c2d12"/>
<rect x="252.2" y="53.6" width="5.1" height="5.1" rx=".7" fill="#7c2d12"/>
<rect x="257.8" y="53.6" width="5.1" height="5.1" rx=".7" fill="#7c2d12"/>
<rect x="252.2" y="59.2" width="5.1" height="5.1" rx=".7" fill="#7c2d12"/>
<rect x="257.8" y="59.2" width="5.1" height="5.1" rx=".7" fill="#7c2d12"/>
<rect x="252.2" y="64.8" width="5.1" height="5.1" rx=".7" fill="#7c2d12"/>
<rect x="257.8" y="64.8" width="5.1" height="5.1" rx=".7" fill="#7c2d12"/>
<rect x="252.2" y="70.4" width="5.1" height="5.1" rx=".7" fill="#7c2d12"/>
<rect x="257.8" y="70.4" width="5.1" height="5.1" rx=".7" fill="#7c2d12"/>
<rect x="252.2" y="76.0" width="5.1" height="5.1" rx=".7" fill="#7c2d12"/>
<rect x="257.8" y="76.0" width="5.1" height="5.1" rx=".7" fill="#7c2d12"/>
<rect x="252.2" y="81.6" width="5.1" height="5.1" rx=".7" fill="#7c2d12"/>
<rect x="257.8" y="81.6" width="5.1" height="5.1" rx=".7" fill="#7c2d12"/>
<rect x="280.2" y="81.6" width="5.1" height="5.1" rx=".7" fill="#7c2d12"/>
<rect x="285.8" y="81.6" width="5.1" height="5.1" rx=".7" fill="#7c2d12"/>
<rect x="257.8" y="87.2" width="5.1" height="5.1" rx=".7" fill="#7c2d12"/>
<rect x="263.4" y="87.2" width="5.1" height="5.1" rx=".7" fill="#7c2d12"/>
<rect x="269.0" y="87.2" width="5.1" height="5.1" rx=".7" fill="#7c2d12"/>
<rect x="274.6" y="87.2" width="5.1" height="5.1" rx=".7" fill="#7c2d12"/>
<rect x="280.2" y="87.2" width="5.1" height="5.1" rx=".7" fill="#7c2d12"/>
<rect x="308.2" y="42.4" width="5.1" height="5.1" rx=".7" fill="#7c2d12"/>
<rect x="313.8" y="42.4" width="5.1" height="5.1" rx=".7" fill="#7c2d12"/>
<rect x="319.4" y="42.4" width="5.1" height="5.1" rx=".7" fill="#7c2d12"/>
<rect x="325.0" y="42.4" width="5.1" height="5.1" rx=".7" fill="#7c2d12"/>
<rect x="330.6" y="42.4" width="5.1" height="5.1" rx=".7" fill="#7c2d12"/>
<rect x="302.6" y="48.0" width="5.1" height="5.1" rx=".7" fill="#7c2d12"/>
<rect x="308.2" y="48.0" width="5.1" height="5.1" rx=".7" fill="#7c2d12"/>
<rect x="330.6" y="48.0" width="5.1" height="5.1" rx=".7" fill="#7c2d12"/>
<rect x="336.2" y="48.0" width="5.1" height="5.1" rx=".7" fill="#7c2d12"/>
<rect x="302.6" y="53.6" width="5.1" height="5.1" rx=".7" fill="#7c2d12"/>
<rect x="308.2" y="53.6" width="5.1" height="5.1" rx=".7" fill="#7c2d12"/>
<rect x="330.6" y="53.6" width="5.1" height="5.1" rx=".7" fill="#7c2d12"/>
<rect x="336.2" y="53.6" width="5.1" height="5.1" rx=".7" fill="#7c2d12"/>
<rect x="302.6" y="59.2" width="5.1" height="5.1" rx=".7" fill="#7c2d12"/>
<rect x="308.2" y="59.2" width="5.1" height="5.1" rx=".7" fill="#7c2d12"/>
<rect x="330.6" y="59.2" width="5.1" height="5.1" rx=".7" fill="#7c2d12"/>
<rect x="336.2" y="59.2" width="5.1" height="5.1" rx=".7" fill="#7c2d12"/>
<rect x="302.6" y="64.8" width="5.1" height="5.1" rx=".7" fill="#7c2d12"/>
<rect x="308.2" y="64.8" width="5.1" height="5.1" rx=".7" fill="#7c2d12"/>
<rect x="330.6" y="64.8" width="5.1" height="5.1" rx=".7" fill="#7c2d12"/>
<rect x="336.2" y="64.8" width="5.1" height="5.1" rx=".7" fill="#7c2d12"/>
<rect x="302.6" y="70.4" width="5.1" height="5.1" rx=".7" fill="#7c2d12"/>
<rect x="308.2" y="70.4" width="5.1" height="5.1" rx=".7" fill="#7c2d12"/>
<rect x="330.6" y="70.4" width="5.1" height="5.1" rx=".7" fill="#7c2d12"/>
<rect x="336.2" y="70.4" width="5.1" height="5.1" rx=".7" fill="#7c2d12"/>
<rect x="302.6" y="76.0" width="5.1" height="5.1" rx=".7" fill="#7c2d12"/>
<rect x="308.2" y="76.0" width="5.1" height="5.1" rx=".7" fill="#7c2d12"/>
<rect x="330.6" y="76.0" width="5.1" height="5.1" rx=".7" fill="#7c2d12"/>
<rect x="336.2" y="76.0" width="5.1" height="5.1" rx=".7" fill="#7c2d12"/>
<rect x="302.6" y="81.6" width="5.1" height="5.1" rx=".7" fill="#7c2d12"/>
<rect x="308.2" y="81.6" width="5.1" height="5.1" rx=".7" fill="#7c2d12"/>
<rect x="330.6" y="81.6" width="5.1" height="5.1" rx=".7" fill="#7c2d12"/>
<rect x="336.2" y="81.6" width="5.1" height="5.1" rx=".7" fill="#7c2d12"/>
<rect x="308.2" y="87.2" width="5.1" height="5.1" rx=".7" fill="#7c2d12"/>
<rect x="313.8" y="87.2" width="5.1" height="5.1" rx=".7" fill="#7c2d12"/>
<rect x="319.4" y="87.2" width="5.1" height="5.1" rx=".7" fill="#7c2d12"/>
<rect x="325.0" y="87.2" width="5.1" height="5.1" rx=".7" fill="#7c2d12"/>
<rect x="330.6" y="87.2" width="5.1" height="5.1" rx=".7" fill="#7c2d12"/>
<rect x="353.0" y="42.4" width="5.1" height="5.1" rx=".7" fill="#7c2d12"/>
<rect x="358.6" y="42.4" width="5.1" height="5.1" rx=".7" fill="#7c2d12"/>
<rect x="381.0" y="42.4" width="5.1" height="5.1" rx=".7" fill="#7c2d12"/>
<rect x="386.6" y="42.4" width="5.1" height="5.1" rx=".7" fill="#7c2d12"/>
<rect x="353.0" y="48.0" width="5.1" height="5.1" rx=".7" fill="#7c2d12"/>
<rect x="358.6" y="48.0" width="5.1" height="5.1" rx=".7" fill="#7c2d12"/>
<rect x="364.2" y="48.0" width="5.1" height="5.1" rx=".7" fill="#7c2d12"/>
<rect x="381.0" y="48.0" width="5.1" height="5.1" rx=".7" fill="#7c2d12"/>
<rect x="386.6" y="48.0" width="5.1" height="5.1" rx=".7" fill="#7c2d12"/>
<rect x="353.0" y="53.6" width="5.1" height="5.1" rx=".7" fill="#7c2d12"/>
<rect x="358.6" y="53.6" width="5.1" height="5.1" rx=".7" fill="#7c2d12"/>
<rect x="364.2" y="53.6" width="5.1" height="5.1" rx=".7" fill="#7c2d12"/>
<rect x="381.0" y="53.6" width="5.1" height="5.1" rx=".7" fill="#7c2d12"/>
<rect x="386.6" y="53.6" width="5.1" height="5.1" rx=".7" fill="#7c2d12"/>
<rect x="353.0" y="59.2" width="5.1" height="5.1" rx=".7" fill="#7c2d12"/>
<rect x="358.6" y="59.2" width="5.1" height="5.1" rx=".7" fill="#7c2d12"/>
<rect x="369.8" y="59.2" width="5.1" height="5.1" rx=".7" fill="#7c2d12"/>
<rect x="381.0" y="59.2" width="5.1" height="5.1" rx=".7" fill="#7c2d12"/>
<rect x="386.6" y="59.2" width="5.1" height="5.1" rx=".7" fill="#7c2d12"/>
<rect x="353.0" y="64.8" width="5.1" height="5.1" rx=".7" fill="#7c2d12"/>
<rect x="358.6" y="64.8" width="5.1" height="5.1" rx=".7" fill="#7c2d12"/>
<rect x="369.8" y="64.8" width="5.1" height="5.1" rx=".7" fill="#7c2d12"/>
<rect x="381.0" y="64.8" width="5.1" height="5.1" rx=".7" fill="#7c2d12"/>
<rect x="386.6" y="64.8" width="5.1" height="5.1" rx=".7" fill="#7c2d12"/>
<rect x="353.0" y="70.4" width="5.1" height="5.1" rx=".7" fill="#7c2d12"/>
<rect x="358.6" y="70.4" width="5.1" height="5.1" rx=".7" fill="#7c2d12"/>
<rect x="369.8" y="70.4" width="5.1" height="5.1" rx=".7" fill="#7c2d12"/>
<rect x="381.0" y="70.4" width="5.1" height="5.1" rx=".7" fill="#7c2d12"/>
<rect x="386.6" y="70.4" width="5.1" height="5.1" rx=".7" fill="#7c2d12"/>
<rect x="353.0" y="76.0" width="5.1" height="5.1" rx=".7" fill="#7c2d12"/>
<rect x="358.6" y="76.0" width="5.1" height="5.1" rx=".7" fill="#7c2d12"/>
<rect x="375.4" y="76.0" width="5.1" height="5.1" rx=".7" fill="#7c2d12"/>
<rect x="381.0" y="76.0" width="5.1" height="5.1" rx=".7" fill="#7c2d12"/>
<rect x="386.6" y="76.0" width="5.1" height="5.1" rx=".7" fill="#7c2d12"/>
<rect x="353.0" y="81.6" width="5.1" height="5.1" rx=".7" fill="#7c2d12"/>
<rect x="358.6" y="81.6" width="5.1" height="5.1" rx=".7" fill="#7c2d12"/>
<rect x="375.4" y="81.6" width="5.1" height="5.1" rx=".7" fill="#7c2d12"/>
<rect x="381.0" y="81.6" width="5.1" height="5.1" rx=".7" fill="#7c2d12"/>
<rect x="386.6" y="81.6" width="5.1" height="5.1" rx=".7" fill="#7c2d12"/>
<rect x="353.0" y="87.2" width="5.1" height="5.1" rx=".7" fill="#7c2d12"/>
<rect x="358.6" y="87.2" width="5.1" height="5.1" rx=".7" fill="#7c2d12"/>
<rect x="381.0" y="87.2" width="5.1" height="5.1" rx=".7" fill="#7c2d12"/>
<rect x="386.6" y="87.2" width="5.1" height="5.1" rx=".7" fill="#7c2d12"/>
<rect x="403.4" y="42.4" width="5.1" height="5.1" rx=".7" fill="#7c2d12"/>
<rect x="409.0" y="42.4" width="5.1" height="5.1" rx=".7" fill="#7c2d12"/>
<rect x="414.6" y="42.4" width="5.1" height="5.1" rx=".7" fill="#7c2d12"/>
<rect x="420.2" y="42.4" width="5.1" height="5.1" rx=".7" fill="#7c2d12"/>
<rect x="425.8" y="42.4" width="5.1" height="5.1" rx=".7" fill="#7c2d12"/>
<rect x="431.4" y="42.4" width="5.1" height="5.1" rx=".7" fill="#7c2d12"/>
<rect x="437.0" y="42.4" width="5.1" height="5.1" rx=".7" fill="#7c2d12"/>
<rect x="403.4" y="48.0" width="5.1" height="5.1" rx=".7" fill="#7c2d12"/>
<rect x="409.0" y="48.0" width="5.1" height="5.1" rx=".7" fill="#7c2d12"/>
<rect x="403.4" y="53.6" width="5.1" height="5.1" rx=".7" fill="#7c2d12"/>
<rect x="409.0" y="53.6" width="5.1" height="5.1" rx=".7" fill="#7c2d12"/>
<rect x="403.4" y="59.2" width="5.1" height="5.1" rx=".7" fill="#7c2d12"/>
<rect x="409.0" y="59.2" width="5.1" height="5.1" rx=".7" fill="#7c2d12"/>
<rect x="403.4" y="64.8" width="5.1" height="5.1" rx=".7" fill="#7c2d12"/>
<rect x="409.0" y="64.8" width="5.1" height="5.1" rx=".7" fill="#7c2d12"/>
<rect x="414.6" y="64.8" width="5.1" height="5.1" rx=".7" fill="#7c2d12"/>
<rect x="420.2" y="64.8" width="5.1" height="5.1" rx=".7" fill="#7c2d12"/>
<rect x="425.8" y="64.8" width="5.1" height="5.1" rx=".7" fill="#7c2d12"/>
<rect x="431.4" y="64.8" width="5.1" height="5.1" rx=".7" fill="#7c2d12"/>
<rect x="403.4" y="70.4" width="5.1" height="5.1" rx=".7" fill="#7c2d12"/>
<rect x="409.0" y="70.4" width="5.1" height="5.1" rx=".7" fill="#7c2d12"/>
<rect x="403.4" y="76.0" width="5.1" height="5.1" rx=".7" fill="#7c2d12"/>
<rect x="409.0" y="76.0" width="5.1" height="5.1" rx=".7" fill="#7c2d12"/>
<rect x="403.4" y="81.6" width="5.1" height="5.1" rx=".7" fill="#7c2d12"/>
<rect x="409.0" y="81.6" width="5.1" height="5.1" rx=".7" fill="#7c2d12"/>
<rect x="403.4" y="87.2" width="5.1" height="5.1" rx=".7" fill="#7c2d12"/>
<rect x="409.0" y="87.2" width="5.1" height="5.1" rx=".7" fill="#7c2d12"/>
<rect x="414.6" y="87.2" width="5.1" height="5.1" rx=".7" fill="#7c2d12"/>
<rect x="420.2" y="87.2" width="5.1" height="5.1" rx=".7" fill="#7c2d12"/>
<rect x="425.8" y="87.2" width="5.1" height="5.1" rx=".7" fill="#7c2d12"/>
<rect x="431.4" y="87.2" width="5.1" height="5.1" rx=".7" fill="#7c2d12"/>
<rect x="437.0" y="87.2" width="5.1" height="5.1" rx=".7" fill="#7c2d12"/>
<rect x="459.4" y="42.4" width="5.1" height="5.1" rx=".7" fill="#7c2d12"/>
<rect x="465.0" y="42.4" width="5.1" height="5.1" rx=".7" fill="#7c2d12"/>
<rect x="470.6" y="42.4" width="5.1" height="5.1" rx=".7" fill="#7c2d12"/>
<rect x="476.2" y="42.4" width="5.1" height="5.1" rx=".7" fill="#7c2d12"/>
<rect x="481.8" y="42.4" width="5.1" height="5.1" rx=".7" fill="#7c2d12"/>
<rect x="487.4" y="42.4" width="5.1" height="5.1" rx=".7" fill="#7c2d12"/>
<rect x="453.8" y="48.0" width="5.1" height="5.1" rx=".7" fill="#7c2d12"/>
<rect x="459.4" y="48.0" width="5.1" height="5.1" rx=".7" fill="#7c2d12"/>
<rect x="481.8" y="48.0" width="5.1" height="5.1" rx=".7" fill="#7c2d12"/>
<rect x="487.4" y="48.0" width="5.1" height="5.1" rx=".7" fill="#7c2d12"/>
<rect x="453.8" y="53.6" width="5.1" height="5.1" rx=".7" fill="#7c2d12"/>
<rect x="459.4" y="53.6" width="5.1" height="5.1" rx=".7" fill="#7c2d12"/>
<rect x="453.8" y="59.2" width="5.1" height="5.1" rx=".7" fill="#7c2d12"/>
<rect x="459.4" y="59.2" width="5.1" height="5.1" rx=".7" fill="#7c2d12"/>
<rect x="459.4" y="64.8" width="5.1" height="5.1" rx=".7" fill="#7c2d12"/>
<rect x="465.0" y="64.8" width="5.1" height="5.1" rx=".7" fill="#7c2d12"/>
<rect x="470.6" y="64.8" width="5.1" height="5.1" rx=".7" fill="#7c2d12"/>
<rect x="476.2" y="64.8" width="5.1" height="5.1" rx=".7" fill="#7c2d12"/>
<rect x="481.8" y="64.8" width="5.1" height="5.1" rx=".7" fill="#7c2d12"/>
<rect x="481.8" y="70.4" width="5.1" height="5.1" rx=".7" fill="#7c2d12"/>
<rect x="487.4" y="70.4" width="5.1" height="5.1" rx=".7" fill="#7c2d12"/>
<rect x="481.8" y="76.0" width="5.1" height="5.1" rx=".7" fill="#7c2d12"/>
<rect x="487.4" y="76.0" width="5.1" height="5.1" rx=".7" fill="#7c2d12"/>
<rect x="453.8" y="81.6" width="5.1" height="5.1" rx=".7" fill="#7c2d12"/>
<rect x="459.4" y="81.6" width="5.1" height="5.1" rx=".7" fill="#7c2d12"/>
<rect x="481.8" y="81.6" width="5.1" height="5.1" rx=".7" fill="#7c2d12"/>
<rect x="487.4" y="81.6" width="5.1" height="5.1" rx=".7" fill="#7c2d12"/>
<rect x="453.8" y="87.2" width="5.1" height="5.1" rx=".7" fill="#7c2d12"/>
<rect x="459.4" y="87.2" width="5.1" height="5.1" rx=".7" fill="#7c2d12"/>
<rect x="465.0" y="87.2" width="5.1" height="5.1" rx=".7" fill="#7c2d12"/>
<rect x="470.6" y="87.2" width="5.1" height="5.1" rx=".7" fill="#7c2d12"/>
<rect x="476.2" y="87.2" width="5.1" height="5.1" rx=".7" fill="#7c2d12"/>
<rect x="481.8" y="87.2" width="5.1" height="5.1" rx=".7" fill="#7c2d12"/></g>
  <g><rect x="255.6" y="40.0" width="5.1" height="5.1" rx=".7" fill="url(#ink)"/>
<rect x="261.2" y="40.0" width="5.1" height="5.1" rx=".7" fill="url(#ink)"/>
<rect x="266.8" y="40.0" width="5.1" height="5.1" rx=".7" fill="url(#ink)"/>
<rect x="272.4" y="40.0" width="5.1" height="5.1" rx=".7" fill="url(#ink)"/>
<rect x="278.0" y="40.0" width="5.1" height="5.1" rx=".7" fill="url(#ink)"/>
<rect x="250.0" y="45.6" width="5.1" height="5.1" rx=".7" fill="url(#ink)"/>
<rect x="255.6" y="45.6" width="5.1" height="5.1" rx=".7" fill="url(#ink)"/>
<rect x="278.0" y="45.6" width="5.1" height="5.1" rx=".7" fill="url(#ink)"/>
<rect x="283.6" y="45.6" width="5.1" height="5.1" rx=".7" fill="url(#ink)"/>
<rect x="250.0" y="51.2" width="5.1" height="5.1" rx=".7" fill="url(#ink)"/>
<rect x="255.6" y="51.2" width="5.1" height="5.1" rx=".7" fill="url(#ink)"/>
<rect x="250.0" y="56.8" width="5.1" height="5.1" rx=".7" fill="url(#ink)"/>
<rect x="255.6" y="56.8" width="5.1" height="5.1" rx=".7" fill="url(#ink)"/>
<rect x="250.0" y="62.4" width="5.1" height="5.1" rx=".7" fill="url(#ink)"/>
<rect x="255.6" y="62.4" width="5.1" height="5.1" rx=".7" fill="url(#ink)"/>
<rect x="250.0" y="68.0" width="5.1" height="5.1" rx=".7" fill="url(#ink)"/>
<rect x="255.6" y="68.0" width="5.1" height="5.1" rx=".7" fill="url(#ink)"/>
<rect x="250.0" y="73.6" width="5.1" height="5.1" rx=".7" fill="url(#ink)"/>
<rect x="255.6" y="73.6" width="5.1" height="5.1" rx=".7" fill="url(#ink)"/>
<rect x="250.0" y="79.2" width="5.1" height="5.1" rx=".7" fill="url(#ink)"/>
<rect x="255.6" y="79.2" width="5.1" height="5.1" rx=".7" fill="url(#ink)"/>
<rect x="278.0" y="79.2" width="5.1" height="5.1" rx=".7" fill="url(#ink)"/>
<rect x="283.6" y="79.2" width="5.1" height="5.1" rx=".7" fill="url(#ink)"/>
<rect x="255.6" y="84.8" width="5.1" height="5.1" rx=".7" fill="url(#ink)"/>
<rect x="261.2" y="84.8" width="5.1" height="5.1" rx=".7" fill="url(#ink)"/>
<rect x="266.8" y="84.8" width="5.1" height="5.1" rx=".7" fill="url(#ink)"/>
<rect x="272.4" y="84.8" width="5.1" height="5.1" rx=".7" fill="url(#ink)"/>
<rect x="278.0" y="84.8" width="5.1" height="5.1" rx=".7" fill="url(#ink)"/>
<rect x="306.0" y="40.0" width="5.1" height="5.1" rx=".7" fill="url(#ink)"/>
<rect x="311.6" y="40.0" width="5.1" height="5.1" rx=".7" fill="url(#ink)"/>
<rect x="317.2" y="40.0" width="5.1" height="5.1" rx=".7" fill="url(#ink)"/>
<rect x="322.8" y="40.0" width="5.1" height="5.1" rx=".7" fill="url(#ink)"/>
<rect x="328.4" y="40.0" width="5.1" height="5.1" rx=".7" fill="url(#ink)"/>
<rect x="300.4" y="45.6" width="5.1" height="5.1" rx=".7" fill="url(#ink)"/>
<rect x="306.0" y="45.6" width="5.1" height="5.1" rx=".7" fill="url(#ink)"/>
<rect x="328.4" y="45.6" width="5.1" height="5.1" rx=".7" fill="url(#ink)"/>
<rect x="334.0" y="45.6" width="5.1" height="5.1" rx=".7" fill="url(#ink)"/>
<rect x="300.4" y="51.2" width="5.1" height="5.1" rx=".7" fill="url(#ink)"/>
<rect x="306.0" y="51.2" width="5.1" height="5.1" rx=".7" fill="url(#ink)"/>
<rect x="328.4" y="51.2" width="5.1" height="5.1" rx=".7" fill="url(#ink)"/>
<rect x="334.0" y="51.2" width="5.1" height="5.1" rx=".7" fill="url(#ink)"/>
<rect x="300.4" y="56.8" width="5.1" height="5.1" rx=".7" fill="url(#ink)"/>
<rect x="306.0" y="56.8" width="5.1" height="5.1" rx=".7" fill="url(#ink)"/>
<rect x="328.4" y="56.8" width="5.1" height="5.1" rx=".7" fill="url(#ink)"/>
<rect x="334.0" y="56.8" width="5.1" height="5.1" rx=".7" fill="url(#ink)"/>
<rect x="300.4" y="62.4" width="5.1" height="5.1" rx=".7" fill="url(#ink)"/>
<rect x="306.0" y="62.4" width="5.1" height="5.1" rx=".7" fill="url(#ink)"/>
<rect x="328.4" y="62.4" width="5.1" height="5.1" rx=".7" fill="url(#ink)"/>
<rect x="334.0" y="62.4" width="5.1" height="5.1" rx=".7" fill="url(#ink)"/>
<rect x="300.4" y="68.0" width="5.1" height="5.1" rx=".7" fill="url(#ink)"/>
<rect x="306.0" y="68.0" width="5.1" height="5.1" rx=".7" fill="url(#ink)"/>
<rect x="328.4" y="68.0" width="5.1" height="5.1" rx=".7" fill="url(#ink)"/>
<rect x="334.0" y="68.0" width="5.1" height="5.1" rx=".7" fill="url(#ink)"/>
<rect x="300.4" y="73.6" width="5.1" height="5.1" rx=".7" fill="url(#ink)"/>
<rect x="306.0" y="73.6" width="5.1" height="5.1" rx=".7" fill="url(#ink)"/>
<rect x="328.4" y="73.6" width="5.1" height="5.1" rx=".7" fill="url(#ink)"/>
<rect x="334.0" y="73.6" width="5.1" height="5.1" rx=".7" fill="url(#ink)"/>
<rect x="300.4" y="79.2" width="5.1" height="5.1" rx=".7" fill="url(#ink)"/>
<rect x="306.0" y="79.2" width="5.1" height="5.1" rx=".7" fill="url(#ink)"/>
<rect x="328.4" y="79.2" width="5.1" height="5.1" rx=".7" fill="url(#ink)"/>
<rect x="334.0" y="79.2" width="5.1" height="5.1" rx=".7" fill="url(#ink)"/>
<rect x="306.0" y="84.8" width="5.1" height="5.1" rx=".7" fill="url(#ink)"/>
<rect x="311.6" y="84.8" width="5.1" height="5.1" rx=".7" fill="url(#ink)"/>
<rect x="317.2" y="84.8" width="5.1" height="5.1" rx=".7" fill="url(#ink)"/>
<rect x="322.8" y="84.8" width="5.1" height="5.1" rx=".7" fill="url(#ink)"/>
<rect x="328.4" y="84.8" width="5.1" height="5.1" rx=".7" fill="url(#ink)"/>
<rect x="350.8" y="40.0" width="5.1" height="5.1" rx=".7" fill="url(#ink)"/>
<rect x="356.4" y="40.0" width="5.1" height="5.1" rx=".7" fill="url(#ink)"/>
<rect x="378.8" y="40.0" width="5.1" height="5.1" rx=".7" fill="url(#ink)"/>
<rect x="384.4" y="40.0" width="5.1" height="5.1" rx=".7" fill="url(#ink)"/>
<rect x="350.8" y="45.6" width="5.1" height="5.1" rx=".7" fill="url(#ink)"/>
<rect x="356.4" y="45.6" width="5.1" height="5.1" rx=".7" fill="url(#ink)"/>
<rect x="362.0" y="45.6" width="5.1" height="5.1" rx=".7" fill="url(#ink)"/>
<rect x="378.8" y="45.6" width="5.1" height="5.1" rx=".7" fill="url(#ink)"/>
<rect x="384.4" y="45.6" width="5.1" height="5.1" rx=".7" fill="url(#ink)"/>
<rect x="350.8" y="51.2" width="5.1" height="5.1" rx=".7" fill="url(#ink)"/>
<rect x="356.4" y="51.2" width="5.1" height="5.1" rx=".7" fill="url(#ink)"/>
<rect x="362.0" y="51.2" width="5.1" height="5.1" rx=".7" fill="url(#ink)"/>
<rect x="378.8" y="51.2" width="5.1" height="5.1" rx=".7" fill="url(#ink)"/>
<rect x="384.4" y="51.2" width="5.1" height="5.1" rx=".7" fill="url(#ink)"/>
<rect x="350.8" y="56.8" width="5.1" height="5.1" rx=".7" fill="url(#ink)"/>
<rect x="356.4" y="56.8" width="5.1" height="5.1" rx=".7" fill="url(#ink)"/>
<rect x="367.6" y="56.8" width="5.1" height="5.1" rx=".7" fill="url(#ink)"/>
<rect x="378.8" y="56.8" width="5.1" height="5.1" rx=".7" fill="url(#ink)"/>
<rect x="384.4" y="56.8" width="5.1" height="5.1" rx=".7" fill="url(#ink)"/>
<rect x="350.8" y="62.4" width="5.1" height="5.1" rx=".7" fill="url(#ink)"/>
<rect x="356.4" y="62.4" width="5.1" height="5.1" rx=".7" fill="url(#ink)"/>
<rect x="367.6" y="62.4" width="5.1" height="5.1" rx=".7" fill="url(#ink)"/>
<rect x="378.8" y="62.4" width="5.1" height="5.1" rx=".7" fill="url(#ink)"/>
<rect x="384.4" y="62.4" width="5.1" height="5.1" rx=".7" fill="url(#ink)"/>
<rect x="350.8" y="68.0" width="5.1" height="5.1" rx=".7" fill="url(#ink)"/>
<rect x="356.4" y="68.0" width="5.1" height="5.1" rx=".7" fill="url(#ink)"/>
<rect x="367.6" y="68.0" width="5.1" height="5.1" rx=".7" fill="url(#ink)"/>
<rect x="378.8" y="68.0" width="5.1" height="5.1" rx=".7" fill="url(#ink)"/>
<rect x="384.4" y="68.0" width="5.1" height="5.1" rx=".7" fill="url(#ink)"/>
<rect x="350.8" y="73.6" width="5.1" height="5.1" rx=".7" fill="url(#ink)"/>
<rect x="356.4" y="73.6" width="5.1" height="5.1" rx=".7" fill="url(#ink)"/>
<rect x="373.2" y="73.6" width="5.1" height="5.1" rx=".7" fill="url(#ink)"/>
<rect x="378.8" y="73.6" width="5.1" height="5.1" rx=".7" fill="url(#ink)"/>
<rect x="384.4" y="73.6" width="5.1" height="5.1" rx=".7" fill="url(#ink)"/>
<rect x="350.8" y="79.2" width="5.1" height="5.1" rx=".7" fill="url(#ink)"/>
<rect x="356.4" y="79.2" width="5.1" height="5.1" rx=".7" fill="url(#ink)"/>
<rect x="373.2" y="79.2" width="5.1" height="5.1" rx=".7" fill="url(#ink)"/>
<rect x="378.8" y="79.2" width="5.1" height="5.1" rx=".7" fill="url(#ink)"/>
<rect x="384.4" y="79.2" width="5.1" height="5.1" rx=".7" fill="url(#ink)"/>
<rect x="350.8" y="84.8" width="5.1" height="5.1" rx=".7" fill="url(#ink)"/>
<rect x="356.4" y="84.8" width="5.1" height="5.1" rx=".7" fill="url(#ink)"/>
<rect x="378.8" y="84.8" width="5.1" height="5.1" rx=".7" fill="url(#ink)"/>
<rect x="384.4" y="84.8" width="5.1" height="5.1" rx=".7" fill="url(#ink)"/>
<rect x="401.2" y="40.0" width="5.1" height="5.1" rx=".7" fill="url(#ink)"/>
<rect x="406.8" y="40.0" width="5.1" height="5.1" rx=".7" fill="url(#ink)"/>
<rect x="412.4" y="40.0" width="5.1" height="5.1" rx=".7" fill="url(#ink)"/>
<rect x="418.0" y="40.0" width="5.1" height="5.1" rx=".7" fill="url(#ink)"/>
<rect x="423.6" y="40.0" width="5.1" height="5.1" rx=".7" fill="url(#ink)"/>
<rect x="429.2" y="40.0" width="5.1" height="5.1" rx=".7" fill="url(#ink)"/>
<rect x="434.8" y="40.0" width="5.1" height="5.1" rx=".7" fill="url(#ink)"/>
<rect x="401.2" y="45.6" width="5.1" height="5.1" rx=".7" fill="url(#ink)"/>
<rect x="406.8" y="45.6" width="5.1" height="5.1" rx=".7" fill="url(#ink)"/>
<rect x="401.2" y="51.2" width="5.1" height="5.1" rx=".7" fill="url(#ink)"/>
<rect x="406.8" y="51.2" width="5.1" height="5.1" rx=".7" fill="url(#ink)"/>
<rect x="401.2" y="56.8" width="5.1" height="5.1" rx=".7" fill="url(#ink)"/>
<rect x="406.8" y="56.8" width="5.1" height="5.1" rx=".7" fill="url(#ink)"/>
<rect x="401.2" y="62.4" width="5.1" height="5.1" rx=".7" fill="url(#ink)"/>
<rect x="406.8" y="62.4" width="5.1" height="5.1" rx=".7" fill="url(#ink)"/>
<rect x="412.4" y="62.4" width="5.1" height="5.1" rx=".7" fill="url(#ink)"/>
<rect x="418.0" y="62.4" width="5.1" height="5.1" rx=".7" fill="url(#ink)"/>
<rect x="423.6" y="62.4" width="5.1" height="5.1" rx=".7" fill="url(#ink)"/>
<rect x="429.2" y="62.4" width="5.1" height="5.1" rx=".7" fill="url(#ink)"/>
<rect x="401.2" y="68.0" width="5.1" height="5.1" rx=".7" fill="url(#ink)"/>
<rect x="406.8" y="68.0" width="5.1" height="5.1" rx=".7" fill="url(#ink)"/>
<rect x="401.2" y="73.6" width="5.1" height="5.1" rx=".7" fill="url(#ink)"/>
<rect x="406.8" y="73.6" width="5.1" height="5.1" rx=".7" fill="url(#ink)"/>
<rect x="401.2" y="79.2" width="5.1" height="5.1" rx=".7" fill="url(#ink)"/>
<rect x="406.8" y="79.2" width="5.1" height="5.1" rx=".7" fill="url(#ink)"/>
<rect x="401.2" y="84.8" width="5.1" height="5.1" rx=".7" fill="url(#ink)"/>
<rect x="406.8" y="84.8" width="5.1" height="5.1" rx=".7" fill="url(#ink)"/>
<rect x="412.4" y="84.8" width="5.1" height="5.1" rx=".7" fill="url(#ink)"/>
<rect x="418.0" y="84.8" width="5.1" height="5.1" rx=".7" fill="url(#ink)"/>
<rect x="423.6" y="84.8" width="5.1" height="5.1" rx=".7" fill="url(#ink)"/>
<rect x="429.2" y="84.8" width="5.1" height="5.1" rx=".7" fill="url(#ink)"/>
<rect x="434.8" y="84.8" width="5.1" height="5.1" rx=".7" fill="url(#ink)"/>
<rect x="457.2" y="40.0" width="5.1" height="5.1" rx=".7" fill="url(#ink)"/>
<rect x="462.8" y="40.0" width="5.1" height="5.1" rx=".7" fill="url(#ink)"/>
<rect x="468.4" y="40.0" width="5.1" height="5.1" rx=".7" fill="url(#ink)"/>
<rect x="474.0" y="40.0" width="5.1" height="5.1" rx=".7" fill="url(#ink)"/>
<rect x="479.6" y="40.0" width="5.1" height="5.1" rx=".7" fill="url(#ink)"/>
<rect x="485.2" y="40.0" width="5.1" height="5.1" rx=".7" fill="url(#ink)"/>
<rect x="451.6" y="45.6" width="5.1" height="5.1" rx=".7" fill="url(#ink)"/>
<rect x="457.2" y="45.6" width="5.1" height="5.1" rx=".7" fill="url(#ink)"/>
<rect x="479.6" y="45.6" width="5.1" height="5.1" rx=".7" fill="url(#ink)"/>
<rect x="485.2" y="45.6" width="5.1" height="5.1" rx=".7" fill="url(#ink)"/>
<rect x="451.6" y="51.2" width="5.1" height="5.1" rx=".7" fill="url(#ink)"/>
<rect x="457.2" y="51.2" width="5.1" height="5.1" rx=".7" fill="url(#ink)"/>
<rect x="451.6" y="56.8" width="5.1" height="5.1" rx=".7" fill="url(#ink)"/>
<rect x="457.2" y="56.8" width="5.1" height="5.1" rx=".7" fill="url(#ink)"/>
<rect x="457.2" y="62.4" width="5.1" height="5.1" rx=".7" fill="url(#ink)"/>
<rect x="462.8" y="62.4" width="5.1" height="5.1" rx=".7" fill="url(#ink)"/>
<rect x="468.4" y="62.4" width="5.1" height="5.1" rx=".7" fill="url(#ink)"/>
<rect x="474.0" y="62.4" width="5.1" height="5.1" rx=".7" fill="url(#ink)"/>
<rect x="479.6" y="62.4" width="5.1" height="5.1" rx=".7" fill="url(#ink)"/>
<rect x="479.6" y="68.0" width="5.1" height="5.1" rx=".7" fill="url(#ink)"/>
<rect x="485.2" y="68.0" width="5.1" height="5.1" rx=".7" fill="url(#ink)"/>
<rect x="479.6" y="73.6" width="5.1" height="5.1" rx=".7" fill="url(#ink)"/>
<rect x="485.2" y="73.6" width="5.1" height="5.1" rx=".7" fill="url(#ink)"/>
<rect x="451.6" y="79.2" width="5.1" height="5.1" rx=".7" fill="url(#ink)"/>
<rect x="457.2" y="79.2" width="5.1" height="5.1" rx=".7" fill="url(#ink)"/>
<rect x="479.6" y="79.2" width="5.1" height="5.1" rx=".7" fill="url(#ink)"/>
<rect x="485.2" y="79.2" width="5.1" height="5.1" rx=".7" fill="url(#ink)"/>
<rect x="451.6" y="84.8" width="5.1" height="5.1" rx=".7" fill="url(#ink)"/>
<rect x="457.2" y="84.8" width="5.1" height="5.1" rx=".7" fill="url(#ink)"/>
<rect x="462.8" y="84.8" width="5.1" height="5.1" rx=".7" fill="url(#ink)"/>
<rect x="468.4" y="84.8" width="5.1" height="5.1" rx=".7" fill="url(#ink)"/>
<rect x="474.0" y="84.8" width="5.1" height="5.1" rx=".7" fill="url(#ink)"/>
<rect x="479.6" y="84.8" width="5.1" height="5.1" rx=".7" fill="url(#ink)"/></g>
  <text class="tagline" x="250" y="114.4" font-family="ui-monospace, SFMono-Regular, Menlo, Consolas, monospace" font-size="13" fill="#57606a">A terminal workspace for coding agents.</text>
</svg>
